<?xml version="1.0" encoding="utf-8"?>
<!-- Generator: Adobe Illustrator 16.0.0, SVG Export Plug-In . SVG Version: 6.00 Build 0)  -->
<!DOCTYPE svg PUBLIC "-//W3C//DTD SVG 1.1//EN" "http://www.w3.org/Graphics/SVG/1.1/DTD/svg11.dtd">
<svg version="1.1" id="Livello_1" xmlns="http://www.w3.org/2000/svg" xmlns:xlink="http://www.w3.org/1999/xlink" x="0px" y="0px"
	 width="527.078px" height="487.75px" viewBox="0 0 527.078 487.75" enable-background="new 0 0 527.078 487.75"
	 xml:space="preserve">
<g display="none">
	<defs>
		<rect id="SVGID_1_" x="-907.039" y="-131.875" width="1554" height="750"/>
	</defs>
	<clipPath id="SVGID_2_" display="inline">
		<use xlink:href="#SVGID_1_"  overflow="visible"/>
	</clipPath>
	<path display="inline" clip-path="url(#SVGID_2_)" d="M-694.745,12.383l-3.204,14.096c0,0,48.053-14.76,83.293-16.018
		c19.028-0.68,21.568,9.857,21.811,14.196c0.024,0.426,0.595,0.524,0.758,0.131c2.333-5.631,2.205-25.006-22.996-24.151
		C-652.66,1.91-694.745,12.383-694.745,12.383"/>
	<path display="inline" clip-path="url(#SVGID_2_)" d="M-682.771,43.139l-56.614-1.016c-2.394-0.043-4.785,0.259-7.079,0.947
		c-7.433,2.229-22.39,8.789-22.39,25.482v289.601c0,0,0.854,23.92,50.403,23.493c15.376-0.132-34.171-2.99-34.171-31.182V78.784
		c0-7.032,3.122-13.704,8.507-18.226C-731.288,49.783-726.541,48.787-682.771,43.139"/>
	<path display="inline" clip-path="url(#SVGID_2_)" d="M-327.859,43.139l56.024-1.006c3.068-0.055,6.121,0.396,9.032,1.369
		c7.752,2.591,21.027,9.324,21.027,25.05v289.601c0,0-0.854,23.92-50.403,23.493c-15.376-0.132,34.171-2.99,34.171-31.182V80.424
		c0-8.159-3.647-15.907-9.962-21.073C-279.769,49.699-285.783,48.568-327.859,43.139"/>
	<path display="inline" clip-path="url(#SVGID_2_)" d="M-699.743,293.015c0-107.218,86.918-194.136,194.136-194.136
		c107.218,0,194.136,86.918,194.136,194.136c0,107.218-86.918,194.136-194.136,194.136
		C-612.825,487.15-699.743,400.232-699.743,293.015"/>
	<path display="inline" clip-path="url(#SVGID_2_)" fill="#818181" d="M-672.703,293.015c0-92.285,74.811-167.096,167.096-167.096
		s167.096,74.811,167.096,167.096c0,92.284-74.811,167.096-167.096,167.096S-672.703,385.299-672.703,293.015"/>
	<path display="inline" clip-path="url(#SVGID_2_)" fill="#8E8E8E" d="M-375.926,187.669c-30.638-37.67-77.34-61.751-129.681-61.751
		c-92.284,0-167.096,74.811-167.096,167.096c0,37.368,12.273,71.867,32.998,99.698C-608.46,368.305-419.997,221.124-375.926,187.669
		"/>
	<path display="inline" clip-path="url(#SVGID_2_)" d="M-492.506,220.114c1.169-5.509,2.986-10.098,5.451-13.769
		c2.463-3.673,5.196-6.529,8.204-8.575c3.004-2.045,5.469-3.4,7.391-4.068c3.924-1.252,7.891-2.297,11.901-3.131
		c2.921-0.667,5.844-0.959,8.767-0.876c1.084,0,2.213,0.042,3.381,0.125c4.092,0.333,8.247,1.495,12.464,3.489
		c4.215,1.993,8.455,5.024,12.714,9.094c1.497,3.406,2.453,5.607,2.868,6.604c0.418,0.998,0.834,2.698,1.252,5.107
		c-2.09-1.669-3.904-3.111-5.451-4.323c-1.544-1.211-3.091-2.298-4.635-3.259c-1.545-0.96-3.259-1.773-5.136-2.442
		c-1.88-0.669-4.072-1.253-6.577-1.756c-2.673-0.333-5.261-0.501-7.766-0.501c-4.035,0-7.942,0.418-11.724,1.254
		c-6.136,1.337-11.305,3.509-15.507,6.516c-4.204,3.007-7.145,6.684-8.827,11.029c-0.841,2.173-1.304,4.471-1.387,6.894
		c0,2.338,0.418,4.804,1.257,7.393c1.924,5.682,4.855,11.113,8.79,16.293c3.934,5.183,8.436,10.258,13.502,15.229
		c5.063,4.971,10.464,9.648,16.201,14.036c5.736,4.387,11.22,8.502,16.453,12.345c5.231,3.844,10.089,7.289,14.569,10.34
		c4.48,3.049,7.883,5.701,10.213,7.957c5.249-2.756,10.187-5.073,14.814-6.955c4.626-1.881,9.443-3.74,14.449-5.577h1.502
		c0.418,0.084,0.625,0.293,0.625,0.627c0,0.25-0.125,0.544-0.375,0.876c-1.502,1.337-3.336,2.78-5.506,4.324
		c-2.17,1.546-4.36,3.134-6.57,4.762c-2.21,1.631-4.38,3.22-6.507,4.764c-2.128,1.547-4.065,2.903-5.817,4.072
		c4.921,5.002,8.174,9.504,9.759,13.505c0.833,2.166,1.251,4.293,1.251,6.378c0.083,1.833-0.208,3.627-0.873,5.376
		c-1.334,3.836-4.143,7.754-8.43,11.754c-4.285,4-9.843,8.336-16.668,13.005c-4.413,3.083-9.198,5.75-14.359,8.003
		c-5.161,2.166-9.906,3.457-14.233,3.875c-0.751,0.083-1.459,0.125-2.125,0.125c-3.496,0-6.352-0.834-8.57-2.5
		c-2.044-1.584-3.025-4.21-2.943-7.879c0-1.167,0.085-2.419,0.253-3.751c2.763-9.253,7.831-17.798,15.204-25.636
		c7.371-7.836,15.835-15.755,25.386-23.758c0-0.5-1.644-1.941-4.93-4.322c-3.289-2.383-7.541-5.472-12.76-9.269
		c-5.22-3.798-10.962-8.158-17.224-13.082c-6.264-4.923-12.256-10.116-17.977-15.584c-5.722-5.465-10.817-11.201-15.285-17.21
		c-4.467-6.008-7.453-11.892-8.955-17.651c-1.336-4.757-2.004-9.139-2.004-13.143C-493.089,224.077-492.921,222.033-492.506,220.114
		 M-443.201,364.758c-0.083,0.25-0.083,0.501,0,0.751c0,0.751,0.415,1.463,1.249,2.131c0.996,0.67,2.495,1.046,4.492,1.13
		c0.416,0,0.871-0.043,1.372-0.125c2.745-0.168,6.199-0.982,10.359-2.444c4.16-1.463,9.153-3.907,14.977-7.332
		c4.242-2.924,7.53-6.1,9.861-9.525c2.162-3.426,3.491-6.808,3.991-10.151c0.083-0.751,0.168-1.504,0.251-2.255
		c0-2.423-0.583-4.72-1.747-6.895c-1.499-2.839-4.077-5.137-7.739-6.893c-1.664,0.837-4.515,2.842-8.549,6.017
		c-4.037,3.176-8.132,6.83-12.294,10.966c-4.16,4.138-7.861,8.419-11.105,12.846C-441.329,357.406-443.033,361.333-443.201,364.758"
		/>
	<path display="inline" clip-path="url(#SVGID_2_)" d="M-650.806,277.042c0.661-3.586,2.005-8.467,4.027-14.641
		c2.025-6.174,4.482-12.807,7.373-19.897c2.891-7.091,5.987-14.224,9.29-21.399c3.307-7.174,6.65-13.473,10.039-18.896
		c4.047-6.507,7.599-11.47,10.654-14.892c3.056-3.42,4.5-5.13,4.335-5.13c2.298-1.418,4.55-2.461,6.768-3.129
		c0.871-0.25,1.782-0.375,2.733-0.375c1.619,0,3.238,0.293,4.86,0.878c1.62,0.502,2.991,2.133,4.117,4.893
		c1.127,2.762,2.028,5.814,2.703,9.159c0.674,3.346,1.104,6.691,1.282,10.037c0.18,3.345,0.27,5.769,0.27,7.276
		c0,4.735-0.125,9.202-0.375,13.397c-0.251,4.196-0.541,8.623-0.869,13.285c-0.33,4.66-0.538,7.617-0.626,8.869
		c-0.09,1.251-0.215,9.188-0.382,23.808c0.653-3.581,1.857-7.915,3.609-12.999c1.752-5.081,3.814-10.101,6.179-15.059
		c2.365-4.957,5.038-9.497,8.016-13.623c2.976-4.123,6.22-6.935,9.726-8.437h0.876c3.732,0,6.22,1.996,7.463,5.989
		c1.244,4.328,2.178,9.818,2.799,16.474c0-0.008,0.115,1.486,0.347,4.477c0.231,2.994,0.481,6.257,0.756,9.782
		c0.273,3.531,0.556,7.183,0.849,10.96c0.293,3.778,0.555,7.182,0.791,10.21c0.232,3.031,0.513,5.456,0.841,7.272
		c0.327,1.816,0.653,2.474,0.981,1.973c2.044-3.42,4.232-7.195,6.562-11.325c2.333-4.129,4.763-8.028,7.301-11.699
		c2.532-3.672,5.088-6.82,7.666-9.448c2.575-2.628,5.13-4.275,7.666-4.943c0.49-0.083,0.938-0.125,1.349-0.125
		c2.207,0.084,4.049,1.546,5.521,4.386c1.799,3.508,3.188,8.246,4.169,14.219c0.981,5.972,1.805,12.723,2.468,20.251
		s1.312,14.871,1.942,22.024c0.631,7.154,1.427,13.751,2.388,19.792c0.958,6.042,2.272,10.604,3.942,13.686
		c-2.42,1.001-4.465,0.748-6.13-0.753c-1.666-1.502-3.461-2.879-5.386-4.13c-0.48-1.668-0.886-4.62-1.211-8.857
		c-0.325-4.237-0.691-8.973-1.094-14.207c-0.403-5.235-0.826-10.717-1.263-16.451c-0.443-5.732-0.851-11.026-1.227-15.888
		c-0.375-4.861-0.991-8.876-1.852-12.047c-0.863-3.17-1.867-4.922-3.018-5.256c-0.821,0-1.394-0.229-1.722-0.688
		c-0.328-0.458-1.109,0.021-2.338,1.439c-4.515,5.09-8.249,10.032-11.205,14.829c-2.953,4.798-5.313,9.114-7.078,12.951
		c-1.764,3.839-3.015,7.093-3.754,9.762c-0.738,2.67-1.189,4.255-1.354,4.755c-1.314,3.754-2.565,8.906-3.754,15.455
		c-1.189,6.55-1.95,13.452-2.277,20.71c-1.85,0.501-3.031,0.188-3.539-0.941c-0.508-1.126-1.622-2.44-3.344-3.947
		c0.168-0.919,0.333-3.632,0.5-8.146c0.083-2.254,0.106-4.78,0.063-7.58c-0.043-2.798-0.063-5.868-0.063-9.211
		c-0.037-6.684-0.082-13.908-0.137-21.679c-0.058-7.771-0.381-15.314-0.969-22.635c-0.59-7.319-1.129-13.992-1.612-20.022
		c-0.488-6.03-1.459-10.551-2.913-13.563c-1.086-0.163-2.558,0.692-4.412,2.562c-1.857,1.874-3.669,4.14-5.431,6.801
		c-1.767,2.664-3.374,5.262-4.821,7.799c-1.449,2.538-2.4,4.43-2.853,5.677c-3.711,9.235-6.54,16.95-8.487,23.147
		c-1.947,6.198-3.326,11.46-4.139,15.785c-0.816,4.325-1.332,8.029-1.552,11.107c-0.218,3.08-0.248,5.128-0.09,6.142
		c-0.333,1.51-0.713,5.275-1.136,11.296c-0.428,6.022-0.639,10.707-0.639,14.057c0,3.352,0.128,6.953,0.381,10.806
		c0.255,3.854,0.635,8.418,1.144,13.694h1.016c-2.34,0-4.137-0.459-5.399-1.377c-1.439-1.085-3.731-3.003-6.88-5.756
		c0.168-1.668,0.4-4.494,0.703-8.476c0.303-3.982,0.613-8.066,0.934-12.255c0.318-4.188,0.731-9.596,1.236-16.229
		c0.503-6.632,0.756-9.953,0.756-9.961c0.501-6.581,0.791-10.383,0.869-11.406c0.077-1.023,0.245-3.215,0.5-6.573
		c0.255-3.36,0.426-6.678,0.508-9.955c0.083-3.277,0.125-7.143,0.125-11.597c0.168-3.947,0.293-7.351,0.376-10.208
		c0.082-2.854,0.125-6.342,0.125-10.46c0-0.498,0.062-3.309,0.188-8.432c0.125-5.122,0.187-10.971,0.187-17.548
		c0-6.578-0.162-13.134-0.485-19.668c-0.321-6.535-0.871-11.677-1.645-15.424c-0.257-0.164-0.275-0.393-0.045-0.687
		c0.226-0.29,0.416-0.519,0.568-0.685c0.153-0.167,0.153-0.251,0-0.251c-0.152,0-0.638,0.084-1.456,0.251
		c-3.687,1.499-7.416,4.602-11.188,9.309c-3.769,4.709-7.375,10.269-10.817,16.682c-3.443,6.416-6.682,13.163-9.713,20.245
		c-3.031,7.083-5.594,13.684-7.683,19.808c-2.09,6.123-3.687,11.372-4.801,15.745c-1.108,4.375-1.454,6.977-1.038,7.81
		c-1.89,0.835-3.72,1.294-5.492,1.377C-649.427,281.255-650.479,279.879-650.806,277.042"/>
</g>
<g>
	<defs>
		<rect id="SVGID_3_" x="-907.039" y="-131.875" width="1554" height="750"/>
	</defs>
	<clipPath id="SVGID_4_">
		<use xlink:href="#SVGID_3_"  overflow="visible"/>
	</clipPath>
	<path clip-path="url(#SVGID_4_)" fill="#FFFFFF" d="M74.109,12.383l-3.204,14.096c0,0,48.053-14.76,83.293-16.018
		c19.028-0.68,21.568,9.857,21.812,14.196c0.023,0.426,0.595,0.524,0.758,0.131c2.333-5.631,2.205-25.006-22.996-24.151
		C116.194,1.91,74.109,12.383,74.109,12.383"/>
	<path clip-path="url(#SVGID_4_)" fill="#FFFFFF" d="M86.083,43.139l-55.978-1.005c-3.099-0.056-6.185,0.397-9.121,1.383
		C13.225,46.119,0,52.856,0,68.552v289.601c0,0,0.854,23.92,50.403,23.493c15.376-0.132-34.171-2.99-34.171-31.182V80.551
		c0-8.239,3.676-16.07,10.059-21.28C38.026,49.693,44.122,48.553,86.083,43.139"/>
	<path clip-path="url(#SVGID_4_)" fill="#FFFFFF" d="M440.995,43.139l56.568-1.016c2.425-0.043,4.848,0.261,7.17,0.96
		c7.448,2.243,22.345,8.81,22.345,25.469v289.601c0,0-0.854,23.92-50.403,23.493c-15.376-0.132,34.171-2.99,34.171-31.182V78.924
		c0-7.121-3.157-13.881-8.613-18.456C489.484,49.778,484.643,48.771,440.995,43.139"/>
	<path clip-path="url(#SVGID_4_)" fill="#FFFFFF" d="M69.111,293.015c0-107.218,86.918-194.136,194.137-194.136
		c107.218,0,194.136,86.918,194.136,194.136c0,107.218-86.918,194.136-194.136,194.136
		C156.029,487.15,69.111,400.232,69.111,293.015"/>
	<path clip-path="url(#SVGID_4_)" fill="#00B397" d="M96.151,293.015c0-92.285,74.812-167.096,167.096-167.096
		c92.285,0,167.097,74.811,167.097,167.096c0,92.284-74.812,167.096-167.097,167.096C170.963,460.11,96.151,385.299,96.151,293.015"
		/>
	<path clip-path="url(#SVGID_4_)" fill="#00D3B2" d="M392.929,187.669c-30.639-37.67-77.341-61.751-129.682-61.751
		c-92.284,0-167.096,74.811-167.096,167.096c0,37.368,12.272,71.867,32.999,99.698C160.395,368.305,348.857,221.124,392.929,187.669
		"/>
	<path clip-path="url(#SVGID_4_)" fill="#FFFFFF" d="M276.349,220.114c1.169-5.509,2.986-10.098,5.451-13.769
		c2.463-3.673,5.196-6.529,8.204-8.575c3.004-2.045,5.469-3.4,7.391-4.068c3.924-1.252,7.892-2.297,11.901-3.131
		c2.92-0.667,5.844-0.959,8.767-0.876c1.084,0,2.213,0.042,3.381,0.125c4.093,0.333,8.248,1.495,12.465,3.489
		c4.215,1.993,8.453,5.024,12.714,9.094c1.497,3.406,2.453,5.607,2.868,6.604c0.418,0.998,0.834,2.698,1.252,5.107
		c-2.09-1.669-3.905-3.111-5.451-4.323c-1.544-1.211-3.091-2.298-4.635-3.259c-1.545-0.96-3.26-1.773-5.137-2.442
		c-1.88-0.669-4.071-1.253-6.576-1.756c-2.674-0.333-5.262-0.501-7.768-0.501c-4.034,0-7.941,0.418-11.723,1.254
		c-6.137,1.337-11.306,3.509-15.507,6.516c-4.204,3.007-7.146,6.684-8.827,11.029c-0.842,2.173-1.305,4.471-1.388,6.894
		c0,2.338,0.419,4.804,1.258,7.393c1.924,5.682,4.854,11.113,8.79,16.293c3.934,5.183,8.436,10.258,13.502,15.229
		c5.063,4.971,10.464,9.648,16.2,14.036c5.736,4.387,11.22,8.502,16.453,12.345c5.231,3.844,10.089,7.289,14.568,10.34
		c4.479,3.049,7.884,5.701,10.214,7.957c5.249-2.756,10.188-5.073,14.814-6.955c4.625-1.881,9.442-3.74,14.448-5.577h1.503
		c0.418,0.084,0.625,0.293,0.625,0.627c0,0.25-0.125,0.544-0.375,0.876c-1.503,1.337-3.337,2.78-5.507,4.324
		c-2.17,1.546-4.359,3.134-6.569,4.762c-2.21,1.631-4.381,3.22-6.508,4.764c-2.128,1.547-4.064,2.903-5.816,4.072
		c4.921,5.002,8.174,9.504,9.759,13.505c0.833,2.166,1.251,4.293,1.251,6.378c0.083,1.833-0.208,3.627-0.874,5.376
		c-1.334,3.836-4.142,7.754-8.429,11.754c-4.285,4-9.843,8.336-16.668,13.005c-4.413,3.083-9.198,5.75-14.359,8.003
		c-5.161,2.166-9.906,3.457-14.232,3.875c-0.752,0.083-1.459,0.125-2.125,0.125c-3.496,0-6.353-0.834-8.57-2.5
		c-2.044-1.584-3.025-4.21-2.943-7.879c0-1.167,0.085-2.419,0.253-3.751c2.764-9.253,7.831-17.798,15.204-25.636
		c7.371-7.836,15.835-15.755,25.387-23.758c0-0.5-1.645-1.941-4.931-4.322c-3.289-2.383-7.541-5.472-12.76-9.269
		c-5.22-3.798-10.962-8.158-17.224-13.082c-6.265-4.923-12.257-10.116-17.978-15.584c-5.722-5.465-10.817-11.201-15.285-17.21
		c-4.467-6.008-7.453-11.892-8.955-17.651c-1.336-4.757-2.004-9.139-2.004-13.143C275.766,224.077,275.934,222.033,276.349,220.114
		 M325.654,364.758c-0.083,0.25-0.083,0.501,0,0.751c0,0.751,0.414,1.463,1.248,2.131c0.996,0.67,2.495,1.046,4.492,1.13
		c0.416,0,0.871-0.043,1.372-0.125c2.745-0.168,6.199-0.982,10.359-2.444c4.159-1.463,9.153-3.907,14.976-7.332
		c4.243-2.924,7.531-6.1,9.861-9.525c2.163-3.426,3.492-6.808,3.992-10.151c0.083-0.751,0.168-1.504,0.251-2.255
		c0-2.423-0.583-4.72-1.747-6.895c-1.499-2.839-4.077-5.137-7.739-6.893c-1.664,0.837-4.515,2.842-8.549,6.017
		c-4.037,3.176-8.132,6.83-12.294,10.966c-4.16,4.138-7.861,8.419-11.105,12.846C327.525,357.406,325.822,361.333,325.654,364.758"
		/>
	<path clip-path="url(#SVGID_4_)" fill="#FFFFFF" d="M118.048,277.042c0.661-3.586,2.005-8.467,4.027-14.641
		c2.024-6.174,4.481-12.807,7.373-19.897c2.891-7.091,5.987-14.224,9.29-21.399c3.307-7.174,6.65-13.473,10.039-18.896
		c4.047-6.507,7.599-11.47,10.654-14.892c3.056-3.42,4.5-5.13,4.334-5.13c2.299-1.418,4.551-2.461,6.769-3.129
		c0.871-0.25,1.782-0.375,2.733-0.375c1.618,0,3.237,0.293,4.859,0.878c1.619,0.502,2.991,2.133,4.117,4.893
		c1.127,2.762,2.028,5.814,2.703,9.159c0.674,3.346,1.104,6.691,1.282,10.037c0.18,3.345,0.27,5.769,0.27,7.276
		c0,4.735-0.125,9.202-0.375,13.397c-0.251,4.196-0.541,8.623-0.869,13.285c-0.33,4.66-0.538,7.617-0.626,8.869
		c-0.09,1.251-0.215,9.188-0.383,23.808c0.654-3.581,1.858-7.915,3.609-12.999c1.752-5.081,3.814-10.101,6.18-15.059
		c2.365-4.957,5.038-9.497,8.016-13.623c2.977-4.123,6.221-6.935,9.727-8.437h0.876c3.731,0,6.219,1.996,7.463,5.989
		c1.244,4.328,2.178,9.818,2.798,16.474c0-0.008,0.116,1.486,0.348,4.477c0.231,2.994,0.481,6.257,0.757,9.782
		c0.272,3.531,0.556,7.183,0.849,10.96c0.292,3.778,0.555,7.182,0.79,10.21c0.233,3.031,0.514,5.456,0.841,7.272
		c0.328,1.816,0.654,2.474,0.982,1.973c2.044-3.42,4.231-7.195,6.562-11.325c2.332-4.129,4.763-8.028,7.3-11.699
		c2.533-3.672,5.09-6.82,7.666-9.448s5.131-4.275,7.666-4.943c0.491-0.083,0.939-0.125,1.35-0.125
		c2.208,0.084,4.05,1.546,5.521,4.386c1.799,3.508,3.188,8.246,4.169,14.219c0.981,5.972,1.806,12.723,2.468,20.251
		c0.664,7.528,1.312,14.871,1.942,22.024c0.631,7.154,1.427,13.751,2.388,19.792c0.959,6.042,2.272,10.604,3.942,13.686
		c-2.42,1.001-4.465,0.748-6.13-0.753c-1.666-1.502-3.461-2.879-5.386-4.13c-0.48-1.668-0.887-4.62-1.211-8.857
		c-0.325-4.237-0.691-8.973-1.095-14.207c-0.402-5.235-0.826-10.717-1.264-16.451c-0.443-5.732-0.851-11.026-1.226-15.888
		s-0.991-8.876-1.853-12.047c-0.863-3.17-1.867-4.922-3.018-5.256c-0.821,0-1.395-0.229-1.723-0.688
		c-0.328-0.458-1.108,0.021-2.338,1.439c-4.515,5.09-8.249,10.032-11.205,14.829c-2.953,4.798-5.313,9.114-7.078,12.951
		c-1.764,3.839-3.016,7.093-3.754,9.762c-0.737,2.67-1.188,4.255-1.354,4.755c-1.314,3.754-2.565,8.906-3.754,15.455
		c-1.189,6.55-1.95,13.452-2.278,20.71c-1.849,0.501-3.03,0.188-3.539-0.941c-0.508-1.126-1.621-2.44-3.343-3.947
		c0.167-0.919,0.333-3.632,0.5-8.146c0.083-2.254,0.105-4.78,0.063-7.58c-0.043-2.798-0.063-5.868-0.063-9.211
		c-0.037-6.684-0.082-13.908-0.137-21.679c-0.059-7.771-0.381-15.314-0.97-22.635c-0.591-7.319-1.129-13.992-1.611-20.022
		c-0.488-6.03-1.459-10.551-2.913-13.563c-1.086-0.163-2.559,0.692-4.412,2.562c-1.857,1.874-3.669,4.14-5.431,6.801
		c-1.768,2.664-3.374,5.262-4.821,7.799c-1.449,2.538-2.4,4.43-2.854,5.677c-3.712,9.235-6.539,16.95-8.486,23.147
		c-1.947,6.198-3.326,11.46-4.14,15.785c-0.815,4.325-1.332,8.029-1.552,11.107c-0.218,3.08-0.248,5.128-0.09,6.142
		c-0.333,1.51-0.714,5.275-1.137,11.296c-0.428,6.022-0.639,10.707-0.639,14.057c0,3.352,0.129,6.953,0.381,10.806
		c0.256,3.854,0.636,8.418,1.144,13.694h1.017c-2.34,0-4.137-0.459-5.398-1.377c-1.439-1.085-3.732-3.003-6.88-5.756
		c0.168-1.668,0.399-4.494,0.702-8.476c0.304-3.982,0.613-8.066,0.935-12.255c0.318-4.188,0.731-9.596,1.236-16.229
		c0.503-6.632,0.756-9.953,0.756-9.961c0.501-6.581,0.791-10.383,0.868-11.406c0.078-1.023,0.246-3.215,0.501-6.573
		c0.255-3.36,0.425-6.678,0.508-9.955s0.125-7.143,0.125-11.597c0.168-3.947,0.293-7.351,0.376-10.208
		c0.082-2.854,0.125-6.342,0.125-10.46c0-0.498,0.062-3.309,0.187-8.432c0.126-5.122,0.188-10.971,0.188-17.548
		c0-6.578-0.162-13.134-0.485-19.668c-0.321-6.535-0.871-11.677-1.645-15.424c-0.257-0.164-0.275-0.393-0.045-0.687
		c0.226-0.29,0.416-0.519,0.567-0.685c0.153-0.167,0.153-0.251,0-0.251c-0.151,0-0.638,0.084-1.456,0.251
		c-3.687,1.499-7.416,4.602-11.188,9.309c-3.77,4.709-7.375,10.269-10.817,16.682c-3.443,6.416-6.682,13.163-9.713,20.245
		c-3.031,7.083-5.594,13.684-7.683,19.808c-2.091,6.123-3.688,11.372-4.802,15.745c-1.108,4.375-1.453,6.977-1.037,7.81
		c-1.891,0.835-3.721,1.294-5.492,1.377C119.427,281.255,118.376,279.879,118.048,277.042"/>
</g>
</svg>
