<?xml version="1.0" encoding="utf-8"?>
<!-- Generator: Adobe Illustrator 16.0.0, SVG Export Plug-In . SVG Version: 6.00 Build 0)  -->
<!DOCTYPE svg PUBLIC "-//W3C//DTD SVG 1.1//EN" "http://www.w3.org/Graphics/SVG/1.1/DTD/svg11.dtd">
<svg version="1.1" id="Layer_1" xmlns="http://www.w3.org/2000/svg" xmlns:xlink="http://www.w3.org/1999/xlink" x="0px" y="0px"
	 width="595.281px" height="595.28px" viewBox="0 123.305 595.281 595.28" enable-background="new 0 123.305 595.281 595.28"
	 xml:space="preserve">
<g id="XMLID_13_">
	<path id="XMLID_17_" d="M417.943,123.305H177.337C79.553,123.305,0,202.858,0,300.642v240.605
		c0,97.784,79.553,177.338,177.337,177.338h240.605c97.785,0,177.338-79.554,177.338-177.338V300.642
		C595.279,202.858,515.726,123.305,417.943,123.305z M535.396,541.248c0,64.867-52.586,117.452-117.453,117.452H177.337
		c-64.867,0-117.452-52.585-117.452-117.452V300.642c0-64.867,52.585-117.452,117.452-117.452h240.605
		c64.867,0,117.453,52.585,117.453,117.452V541.248L535.396,541.248z"/>
	<path id="XMLID_81_" d="M297.64,266.984c-84.894,0-153.96,69.067-153.96,153.96c0,84.894,69.066,153.961,153.96,153.961
		c84.895,0,153.961-69.066,153.961-153.961S382.535,266.984,297.64,266.984z M297.64,515.021c-51.957,0-94.076-42.119-94.076-94.076
		s42.12-94.075,94.076-94.075c51.957,0,94.076,42.118,94.076,94.075C391.716,472.901,349.595,515.021,297.64,515.021z"/>
	<circle id="XMLID_83_" cx="451.894" cy="268.143" r="36.891"/>
</g>
</svg>
