<?xml version="1.0" encoding="utf-8"?>
<!-- Generator: Adobe Illustrator 16.0.0, SVG Export Plug-In . SVG Version: 6.00 Build 0)  -->
<!DOCTYPE svg PUBLIC "-//W3C//DTD SVG 1.1//EN" "http://www.w3.org/Graphics/SVG/1.1/DTD/svg11.dtd">
<svg version="1.1" id="Capa_1" xmlns="http://www.w3.org/2000/svg" xmlns:xlink="http://www.w3.org/1999/xlink" x="0px" y="0px"
	 width="595.281px" height="595.044px" viewBox="0 123.3 595.281 595.044" enable-background="new 0 123.3 595.281 595.044"
	 xml:space="preserve">
<g>
	<path d="M297.64,123.3C133.258,123.3,0,256.557,0,420.94c0,164.382,133.258,297.64,297.64,297.64
		c164.383,0,297.641-133.258,297.641-297.64C595.281,256.557,462.023,123.3,297.64,123.3z M218.967,567.6h-71.123V353.621h71.123
		V567.6z M183.403,324.424h-0.462c-23.865,0-39.326-16.438-39.326-36.98c0-20.99,15.922-36.966,40.26-36.966
		c24.343,0,39.299,15.976,39.771,36.966C223.646,307.986,208.218,324.424,183.403,324.424z M475.478,567.6h-71.145V453.114
		c0-28.746-10.273-48.378-36.031-48.378c-19.658,0-31.336,13.217-36.494,26.015c-1.871,4.573-2.355,10.924-2.355,17.339v119.506
		h-71.149c0,0,0.955-193.903,0-213.975h71.155v30.322c9.455-14.549,26.316-35.347,64.119-35.347c46.807,0,81.9,30.582,81.9,96.294
		V567.6z"/>
</g>
</svg>
