<?xml version="1.0" encoding="utf-8"?>
<!-- Generator: Adobe Illustrator 16.0.0, SVG Export Plug-In . SVG Version: 6.00 Build 0)  -->
<!DOCTYPE svg PUBLIC "-//W3C//DTD SVG 1.1//EN" "http://www.w3.org/Graphics/SVG/1.1/DTD/svg11.dtd">
<svg version="1.1" xmlns="http://www.w3.org/2000/svg" xmlns:xlink="http://www.w3.org/1999/xlink" x="0px" y="0px" width="46.53px"
	 height="46.617px" viewBox="0 0 46.53 46.617" enable-background="new 0 0 46.53 46.617" xml:space="preserve">
<g id="Livello_1" display="none">
	
		<image display="inline" overflow="visible" width="200" height="200" xlink:href="../../../../../../Desktop/skype-logo-F4A7960445-seeklogo.com.png"  transform="matrix(0.7501 0 0 0.7501 0.874 -0.1123)">
	</image>
</g>
<g id="Livello_2">
	<path d="M44.991,27.236c0.225-1.262,0.348-2.559,0.348-3.884c0-12.19-9.882-22.073-22.073-22.073c-1.326,0-2.624,0.124-3.887,0.349
		C17.521,0.596,15.386,0.006,13.113,0C5.891-0.02,0.02,5.862,0,13.139c-0.007,2.268,0.557,4.402,1.553,6.268
		c-0.231,1.281-0.359,2.599-0.359,3.946c0,12.19,9.883,22.072,22.072,22.072c1.37,0,2.708-0.131,4.009-0.37
		c1.83,0.99,3.92,1.557,6.143,1.563c7.223,0.02,13.094-5.863,13.113-13.14C46.537,31.221,45.979,29.096,44.991,27.236z
		 M33.262,32.344c-1.168,2.752-6.122,4.42-11.704,4.187c-5.002-0.193-8.763-3.334-9.286-5.35c-0.639-1.899-0.019-3.528,2.346-3.645
		c2.326-0.271,2.56,2.287,4.73,3.645c2.52,1.551,5.272,1.473,7.56,0c2.287-1.474,1.163-3.955,0.736-4.265
		c-0.892-1.008-1.631-1.097-8.141-2.559c-5.351-1.049-5.315-2.42-6.32-3.373c-1.244-2.187-1.163-3.885-0.73-6.107
		c0.343-1.763,2.011-4.089,5.732-5.407c5.893-1.396,12.096,0.465,13.802,2.869c1.551,1.435,1.318,2.83,1.163,3.605
		s-1.163,1.163-1.163,1.163s-0.892,0.62-2.675-0.078c-1.745-0.813-1.125-2.055-4.071-3.218c-7.095-1.317-6.899,1.63-7.25,2.326
		c0.232,2.714,2.21,3.141,6.746,3.993c4.497,0.931,6.707,1.513,8.685,4.381C34.795,26.507,34.661,29.823,33.262,32.344z"/>
</g>
</svg>
